<svg xmlns="http://www.w3.org/2000/svg" width="471.97" height="443.866" viewBox="0 0 471.97 443.866">
  <g id="undraw_pie_chart_re_bgs8" transform="translate(-368.46 -211)">
    <path id="Path_11" data-name="Path 11" d="M925.309,176.717A201.592,201.592,0,0,0,786.515,113.5V315.511Z" transform="translate(-140.26 97.5)" fill="#fff"/>
    <path id="Path_12" data-name="Path 12" d="M925.309,201.87,786.515,340.664H980.483A201.485,201.485,0,0,0,925.309,201.87Z" transform="translate(-140.26 97.5)" fill="#a2a2a2"/>
    <path id="Path_13" data-name="Path 13" d="M980.69,355.18a202.73,202.73,0,0,1-3.48,37.53c-.18.98-.37,1.95-.57,2.92a200.543,200.543,0,0,1-23.4,61.32c-.59,1.02-1.2,2.04-1.81,3.04V460a202.816,202.816,0,0,1-40.6,48.03c-.79.69-1.58,1.37-2.38,2.04a201.308,201.308,0,0,1-121.94,47.12V355.18Z" transform="translate(-140.26 97.5)" fill="#f0f0f0"/>
    <path id="Path_14" data-name="Path 14" d="M766.892,557.366c2.685,0,5.354-.068,8.014-.172V355.175L627.99,502.091a201.489,201.489,0,0,0,138.9,55.275Z" transform="translate(-140.26 97.5)" fill="#08fdd8"/>
    <path id="Path_15" data-name="Path 15" d="M767.166,138.473C655.5,138.473,564.975,229,564.975,340.664H775.39V138.653C772.661,138.544,769.922,138.473,767.166,138.473Z" transform="translate(-140.26 97.5)" fill="#81d8f7"/>
    <path id="Path_16" data-name="Path 16" d="M718.93,355.18l-42.51,42.51-1.39,1.39-.03.03-37.07,37.06-1.41,1.41-40.05,40.05-1.41,1.41v.01l-23.05,23.04a201.608,201.608,0,0,1-63.29-146.91Z" transform="translate(-140.26 97.5)" fill="orange"/>
  </g>
</svg>
